<svg xmlns="http://www.w3.org/2000/svg" width="411" height="283" viewBox="0 0 411 283">
  <g id="Gruppe_27" data-name="Gruppe 27" transform="translate(-534.75 -92)">
    <g id="Pfad_7" data-name="Pfad 7" transform="translate(945.75 92) rotate(90)" fill="#fff">
      <path d="M 282.5 410.5 L 0.5 410.5 L 0.5 0.5 L 282.5 0.5 L 282.5 410.5 Z" stroke="none"/>
      <path d="M 1 1 L 1 410 L 282 410 L 282 1 L 1 1 M 0 0 L 283 0 L 283 411 L 0 411 L 0 0 Z" stroke="none" fill="#707070"/>
    </g>
    <g id="Ellipse_7" data-name="Ellipse 7" transform="translate(623 196)" fill="#ffff03" stroke="#7d7272" stroke-width="4">
      <circle cx="17.5" cy="17.5" r="17.5" stroke="none"/>
      <circle cx="17.5" cy="17.5" r="15.5" fill="none"/>
    </g>
    <g id="Ellipse_8" data-name="Ellipse 8" transform="translate(583 196)" fill="#ff0303" stroke="#7d7272" stroke-width="4">
      <circle cx="17.5" cy="17.5" r="17.5" stroke="none"/>
      <circle cx="17.5" cy="17.5" r="15.5" fill="none"/>
    </g>
    <g id="Ellipse_9" data-name="Ellipse 9" transform="translate(703 196)" fill="#ffff03" stroke="#7d7272" stroke-width="4">
      <circle cx="17.5" cy="17.5" r="17.5" stroke="none"/>
      <circle cx="17.5" cy="17.5" r="15.5" fill="none"/>
    </g>
    <g id="Ellipse_10" data-name="Ellipse 10" transform="translate(663 196)" fill="#ff0303" stroke="#7d7272" stroke-width="4">
      <circle cx="17.5" cy="17.5" r="17.5" stroke="none"/>
      <circle cx="17.5" cy="17.5" r="15.5" fill="none"/>
    </g>
    <g id="Ellipse_11" data-name="Ellipse 11" transform="translate(783 196)" fill="#ffff03" stroke="#7d7272" stroke-width="4">
      <circle cx="17.5" cy="17.5" r="17.5" stroke="none"/>
      <circle cx="17.5" cy="17.5" r="15.5" fill="none"/>
    </g>
    <g id="Ellipse_12" data-name="Ellipse 12" transform="translate(743 196)" fill="#ff0303" stroke="#7d7272" stroke-width="4">
      <circle cx="17.5" cy="17.5" r="17.5" stroke="none"/>
      <circle cx="17.5" cy="17.5" r="15.5" fill="none"/>
    </g>
    <g id="Ellipse_13" data-name="Ellipse 13" transform="translate(623 236)" fill="#ffff03" stroke="#7d7272" stroke-width="4">
      <circle cx="17.5" cy="17.5" r="17.5" stroke="none"/>
      <circle cx="17.5" cy="17.5" r="15.5" fill="none"/>
    </g>
    <g id="Ellipse_14" data-name="Ellipse 14" transform="translate(583 236)" fill="#ff0303" stroke="#7d7272" stroke-width="4">
      <circle cx="17.5" cy="17.5" r="17.5" stroke="none"/>
      <circle cx="17.5" cy="17.5" r="15.5" fill="none"/>
    </g>
    <g id="Ellipse_15" data-name="Ellipse 15" transform="translate(703 236)" fill="#ffff03" stroke="#7d7272" stroke-width="4">
      <circle cx="17.5" cy="17.5" r="17.5" stroke="none"/>
      <circle cx="17.5" cy="17.5" r="15.5" fill="none"/>
    </g>
    <g id="Ellipse_16" data-name="Ellipse 16" transform="translate(663 236)" fill="#ff0303" stroke="#7d7272" stroke-width="4">
      <circle cx="17.5" cy="17.5" r="17.5" stroke="none"/>
      <circle cx="17.5" cy="17.5" r="15.5" fill="none"/>
    </g>
    <g id="Ellipse_17" data-name="Ellipse 17" transform="translate(783 236)" fill="#ffff03" stroke="#7d7272" stroke-width="4">
      <circle cx="17.5" cy="17.5" r="17.5" stroke="none"/>
      <circle cx="17.5" cy="17.5" r="15.5" fill="none"/>
    </g>
    <g id="Ellipse_18" data-name="Ellipse 18" transform="translate(743 236)" fill="#ff0303" stroke="#7d7272" stroke-width="4">
      <circle cx="17.5" cy="17.5" r="17.5" stroke="none"/>
      <circle cx="17.5" cy="17.5" r="15.5" fill="none"/>
    </g>
    <g id="Ellipse_19" data-name="Ellipse 19" transform="translate(863 196)" fill="#ffff03" stroke="#7d7272" stroke-width="4">
      <circle cx="17.5" cy="17.5" r="17.5" stroke="none"/>
      <circle cx="17.5" cy="17.5" r="15.5" fill="none"/>
    </g>
    <g id="Ellipse_20" data-name="Ellipse 20" transform="translate(823 196)" fill="#ff0303" stroke="#7d7272" stroke-width="4">
      <circle cx="17.5" cy="17.5" r="17.5" stroke="none"/>
      <circle cx="17.5" cy="17.5" r="15.5" fill="none"/>
    </g>
    <g id="Ellipse_21" data-name="Ellipse 21" transform="translate(863 236)" fill="#ffff03" stroke="#7d7272" stroke-width="4">
      <circle cx="17.5" cy="17.5" r="17.5" stroke="none"/>
      <circle cx="17.5" cy="17.5" r="15.5" fill="none"/>
    </g>
    <g id="Ellipse_22" data-name="Ellipse 22" transform="translate(823 236)" fill="#ff0303" stroke="#7d7272" stroke-width="4">
      <circle cx="17.5" cy="17.5" r="17.5" stroke="none"/>
      <circle cx="17.5" cy="17.5" r="15.5" fill="none"/>
    </g>
    <text id="_1" data-name="1" transform="translate(595 186)" fill="#707070" font-size="20" font-family="SegoeUI, Segoe UI"><tspan x="0" y="0">1</tspan></text>
    <text id="_2" data-name="2" transform="translate(635 186)" fill="#707070" font-size="20" font-family="SegoeUI, Segoe UI"><tspan x="0" y="0">2</tspan></text>
    <text id="_3" data-name="3" transform="translate(675 186)" fill="#707070" font-size="20" font-family="SegoeUI, Segoe UI"><tspan x="0" y="0">3</tspan></text>
    <text id="_4" data-name="4" transform="translate(715 186)" fill="#707070" font-size="20" font-family="SegoeUI, Segoe UI"><tspan x="0" y="0">4</tspan></text>
    <text id="_5" data-name="5" transform="translate(755 186)" fill="#707070" font-size="20" font-family="SegoeUI, Segoe UI"><tspan x="0" y="0">5</tspan></text>
    <text id="_6" data-name="6" transform="translate(795 186)" fill="#707070" font-size="20" font-family="SegoeUI, Segoe UI"><tspan x="0" y="0">6</tspan></text>
    <text id="_7" data-name="7" transform="translate(835 186)" fill="#707070" font-size="20" font-family="SegoeUI, Segoe UI"><tspan x="0" y="0">7</tspan></text>
    <text id="_8" data-name="8" transform="translate(875 186)" fill="#707070" font-size="20" font-family="SegoeUI, Segoe UI"><tspan x="0" y="0">8</tspan></text>
    <text id="_9" data-name="9" transform="translate(595 298)" fill="#707070" font-size="20" font-family="SegoeUI, Segoe UI"><tspan x="0" y="0">9</tspan></text>
    <text id="_10" data-name="10" transform="translate(630 298)" fill="#707070" font-size="20" font-family="SegoeUI, Segoe UI"><tspan x="0" y="0">10</tspan></text>
    <text id="_11" data-name="11" transform="translate(670 298)" fill="#707070" font-size="20" font-family="SegoeUI, Segoe UI"><tspan x="0" y="0">11</tspan></text>
    <text id="_12" data-name="12" transform="translate(710 298)" fill="#707070" font-size="20" font-family="SegoeUI, Segoe UI"><tspan x="0" y="0">12</tspan></text>
    <text id="_13" data-name="13" transform="translate(749 298)" fill="#707070" font-size="20" font-family="SegoeUI, Segoe UI"><tspan x="0" y="0">13</tspan></text>
    <text id="_14" data-name="14" transform="translate(789 298)" fill="#707070" font-size="20" font-family="SegoeUI, Segoe UI"><tspan x="0" y="0">14</tspan></text>
    <text id="_15" data-name="15" transform="translate(830 298)" fill="#707070" font-size="20" font-family="SegoeUI, Segoe UI"><tspan x="0" y="0">15</tspan></text>
    <text id="_16" data-name="16" transform="translate(870 298)" fill="#707070" font-size="20" font-family="SegoeUI, Segoe UI"><tspan x="0" y="0">16</tspan></text>
  </g>
</svg>
